<?xml version="1.0" encoding="utf-8"?>
<!-- Generator: Adobe Illustrator 27.5.0, SVG Export Plug-In . SVG Version: 6.00 Build 0)  -->
<svg version="1.1" xmlns="http://www.w3.org/2000/svg" xmlns:xlink="http://www.w3.org/1999/xlink" x="0px" y="0px"
	 viewBox="0 0 500 500" style="enable-background:new 0 0 500 500;" xml:space="preserve">
<g id="BACKGROUND">
</g>
<g id="OBJECTS">
	<g>
		<g style="opacity:0.22;">
			<linearGradient id="SVGID_1_" gradientUnits="userSpaceOnUse" x1="318.1371" y1="133.0321" x2="126.7865" y2="605.5301">
				<stop  offset="0" style="stop-color:#B9BDFF"/>
				<stop  offset="1" style="stop-color:#564DC1"/>
			</linearGradient>
			<path style="fill:url(#SVGID_1_);" d="M264.394,412.964c-42.82,4.432-128.984-2.918-169.972-14.784
				c-39.622-11.469-64.815-35.106-77.88-61.698C3.476,309.89,4.846,274.59,26.014,253.859
				c14.782-14.477,37.656-21.134,46.972-39.609c5.464-10.836,4.997-23.545,6.047-35.635c2.503-28.826,15.259-57.563,38.229-75.157
				c22.97-17.594,56.683-21.962,81.371-6.872c21.428,13.097,36.824,39.635,61.93,40.273c17.38,0.442,31.876-12.166,46.939-20.847
				c23.648-13.63,53.262-18.158,78.77-8.446c25.508,9.712,45.408,34.915,45.334,62.209c-0.034,12.611-3.906,26.046,1.734,37.326
				c2.775,5.548,7.544,9.792,12.206,13.884c12.472,10.947,25.197,22.092,33.739,36.32c15.753,26.241,14.769,60.715,0.695,87.893
				c-14.074,27.178-39.949,47.192-68.681,57.737C382.567,413.48,304.601,411.205,264.394,412.964"/>
		</g>
		
			<linearGradient id="SVGID_00000060020322302585615150000017877423221362182835_" gradientUnits="userSpaceOnUse" x1="79.7753" y1="416.0067" x2="422.2472" y2="416.0067">
			<stop  offset="0" style="stop-color:#B9BDFF"/>
			<stop  offset="1" style="stop-color:#564DC1"/>
		</linearGradient>
		
			<ellipse style="opacity:0.56;fill:url(#SVGID_00000060020322302585615150000017877423221362182835_);" cx="251.011" cy="416.007" rx="171.236" ry="8.05"/>
		<g>
			<g>
				<g>
					<path style="fill:#F69A2B;" d="M198.081,202.479c-0.283-4.614,0.101-9.275,0.928-13.875c0.414-2.302,0.968-4.589,1.683-6.839
						c0.716-2.25,1.597-4.459,2.624-6.618c1.059-2.145,2.307-4.211,3.718-6.187c1.439-1.959,3.099-3.766,4.906-5.442l1.42-1.186
						c0.24-0.194,0.471-0.402,0.72-0.584l0.759-0.533c0.51-0.349,1.006-0.725,1.533-1.05l1.603-0.943
						c0.527-0.332,1.092-0.587,1.65-0.859c0.561-0.264,1.113-0.555,1.684-0.795l1.734-0.672l0.872-0.327l0.889-0.262l1.783-0.52
						c0.596-0.164,1.203-0.266,1.805-0.4c0.605-0.121,1.205-0.265,1.816-0.365c0.613-0.084,1.228-0.199,1.842-0.256
						c2.46-0.283,4.92-0.326,7.347-0.227c4.862,0.196,9.584,1.029,14.184,2.056c4.604,1.033,9.085,2.337,13.521,3.639
						c4.43,1.325,8.802,2.704,13.172,3.957c4.361,1.277,8.717,2.457,13.085,3.361c4.361,0.931,8.741,1.572,13.093,1.772
						c4.351,0.21,8.674-0.095,12.847-1.02c4.168-0.937,8.174-2.538,11.856-4.783c1.838-1.124,3.612-2.38,5.302-3.764l1.25-1.063
						c0.409-0.363,0.805-0.741,1.21-1.111l0.302-0.279l0.125-0.115l0.123-0.124c0.172-0.179,0.354-0.368,0.532-0.566
						c0.358-0.391,0.711-0.803,1.057-1.221c1.39-1.678,2.658-3.499,3.839-5.378c1.187-1.877,2.245-3.845,3.214-5.861
						c1.941-4.034,3.437-8.307,4.525-12.714c1.073-4.412,1.68-8.961,1.939-13.569c0.253,2.294,0.374,4.608,0.388,6.933
						c-0.024,2.322-0.164,4.652-0.425,6.977c-0.537,4.648-1.647,9.255-3.271,13.702c-1.644,4.442-3.781,8.722-6.565,12.684
						c-0.351,0.496-0.709,0.988-1.092,1.477c-0.19,0.245-0.385,0.489-0.597,0.738l-0.168,0.194l-0.179,0.192l-0.311,0.328
						c-0.416,0.435-0.826,0.878-1.25,1.307l-1.299,1.261c-1.768,1.649-3.653,3.198-5.676,4.574
						c-2.018,1.381-4.157,2.609-6.394,3.646c-2.24,1.028-4.574,1.857-6.953,2.497c-4.762,1.297-9.695,1.744-14.532,1.664
						c-4.847-0.087-9.609-0.74-14.26-1.634c-4.65-0.925-9.188-2.13-13.66-3.417c-4.464-1.315-8.864-2.713-13.232-4.074
						c-4.362-1.38-8.71-2.683-13.052-3.799c-8.665-2.188-17.482-3.606-25.757-1.444c-4.149,0.971-7.998,2.885-11.42,5.452
						c-1.677,1.33-3.246,2.815-4.687,4.448c-1.416,1.653-2.708,3.434-3.873,5.317c-1.148,1.895-2.163,3.885-3.073,5.938
						c-0.916,2.052-1.666,4.185-2.36,6.346c-0.682,2.165-1.246,4.377-1.709,6.616C198.682,197.916,198.315,200.184,198.081,202.479z
						"/>
				</g>
				<g>
					<path style="fill:#F69A2B;" d="M333.059,95.937c-2.293-0.25-4.588-0.366-6.877-0.361c-2.287-0.015-4.567,0.074-6.827,0.289
						c-2.258,0.227-4.501,0.515-6.699,0.982c-2.198,0.461-4.356,1.038-6.449,1.764c-2.085,0.746-4.097,1.638-6.009,2.677
						c-1.897,1.068-3.678,2.293-5.329,3.655c-3.225,2.81-5.902,6.174-7.718,10.028c-3.843,7.641-4.299,16.56-3.969,25.491
						c0.185,4.48,0.55,9.003,0.989,13.558c0.418,4.556,0.866,9.151,1.22,13.791c0.324,4.642,0.554,9.332,0.488,14.072
						c-0.097,4.736-0.453,9.529-1.381,14.287c-0.932,4.747-2.4,9.478-4.663,13.864c-1.124,2.193-2.422,4.302-3.895,6.278
						c-1.481,1.971-3.129,3.806-4.901,5.491c-1.768,1.69-3.677,3.21-5.659,4.595l-1.505,1.007c-0.508,0.325-1.027,0.633-1.54,0.949
						l-0.385,0.235l-0.225,0.135l-0.225,0.124c-0.288,0.155-0.568,0.295-0.847,0.43c-0.558,0.272-1.114,0.52-1.672,0.76
						c-4.456,1.894-9.088,3.09-13.776,3.77c-4.688,0.659-9.425,0.782-14.083,0.336c-2.328-0.231-4.635-0.58-6.911-1.042
						c-2.271-0.499-4.509-1.101-6.699-1.828c4.561,0.709,9.136,1.067,13.675,0.939c4.537-0.143,9.028-0.714,13.378-1.769
						c2.174-0.526,4.32-1.15,6.404-1.919c2.084-0.762,4.129-1.622,6.061-2.631c0.481-0.252,0.958-0.51,1.415-0.779
						c0.23-0.132,0.453-0.271,0.664-0.402l0.147-0.094l0.138-0.098l0.336-0.237c0.447-0.318,0.899-0.627,1.34-0.951l1.301-1
						c1.706-1.364,3.305-2.836,4.788-4.399c2.965-3.132,5.367-6.714,7.154-10.595c1.777-3.887,2.978-8.051,3.682-12.35
						c0.713-4.298,1.002-8.716,1.002-13.175c0.029-4.461-0.215-8.967-0.553-13.499c-0.313-4.535-0.748-9.099-1.118-13.708
						c-0.346-4.61-0.685-9.264-0.734-13.983c-0.043-4.714,0.129-9.506,0.953-14.301c0.411-2.395,0.966-4.791,1.757-7.137
						c0.184-0.589,0.424-1.166,0.635-1.748c0.225-0.577,0.492-1.133,0.736-1.7c0.258-0.561,0.483-1.133,0.769-1.682l0.881-1.635
						l0.442-0.815l0.502-0.784l1.019-1.556c0.354-0.508,0.754-0.988,1.129-1.481c0.383-0.488,0.75-0.987,1.184-1.434l1.257-1.371
						c0.428-0.447,0.899-0.854,1.347-1.28l0.68-0.63c0.23-0.205,0.482-0.387,0.722-0.582l1.456-1.141
						c2.016-1.417,4.131-2.663,6.347-3.661c2.227-0.967,4.508-1.756,6.827-2.344c2.327-0.553,4.671-0.953,7.021-1.183
						c2.35-0.229,4.702-0.293,7.04-0.217C323.967,94.098,328.606,94.696,333.059,95.937z"/>
				</g>
				<g>
					<g>
						
							<rect x="337.535" y="88.209" transform="matrix(0.7075 -0.7067 0.7067 0.7075 20.4633 271.4208)" style="fill:#F69A2B;" width="1.162" height="45.563"/>
					</g>
					<g>
						
							<rect x="329.007" y="86.04" transform="matrix(0.7075 -0.7067 0.7067 0.7075 13.5615 267.2179)" style="fill:#F69A2B;" width="1.162" height="62.372"/>
					</g>
					<g>
						
							<rect x="322.831" y="91.213" transform="matrix(0.7011 -0.7131 0.7131 0.7011 7.881 267.8436)" style="fill:#F69A2B;" width="1.161" height="66.618"/>
					</g>
					<g>
						
							<rect x="315.988" y="97.118" transform="matrix(0.7019 -0.7122 0.7122 0.7019 -0.2149 265.0486)" style="fill:#F69A2B;" width="1.161" height="71.326"/>
					</g>
					<g>
						
							<rect x="308.16" y="105.313" transform="matrix(0.7005 -0.7136 0.7136 0.7005 -7.7667 262.3734)" style="fill:#F69A2B;" width="1.161" height="70.256"/>
					</g>
					<g>
						
							<rect x="302.602" y="118.109" transform="matrix(0.7075 -0.7067 0.7067 0.7075 -16.8256 257.9376)" style="fill:#F69A2B;" width="1.162" height="62.372"/>
					</g>
					<g>
						
							<rect x="296.71" y="133.52" transform="matrix(0.6911 -0.7228 0.7228 0.6911 -22.058 263.5656)" style="fill:#F69A2B;" width="1.161" height="48.133"/>
					</g>
				</g>
				<g>
					<g>
						
							<rect x="215.077" y="189.883" transform="matrix(0.729 -0.6845 0.6845 0.729 -88.6895 205.8663)" style="fill:#F69A2B;" width="1.162" height="50.123"/>
					</g>
					<g>
						
							<rect x="222.814" y="176.228" transform="matrix(0.7233 -0.6905 0.6905 0.7233 -81.9564 211.8761)" style="fill:#F69A2B;" width="1.161" height="63.945"/>
					</g>
					<g>
						
							<rect x="230.018" y="164.909" transform="matrix(0.7224 -0.6915 0.6915 0.7224 -75.299 215.393)" style="fill:#F69A2B;" width="1.161" height="73.128"/>
					</g>
					<g>
						
							<rect x="238.249" y="156.387" transform="matrix(0.728 -0.6856 0.6856 0.728 -68.1131 216.5519)" style="fill:#F69A2B;" width="1.161" height="75.442"/>
					</g>
					<g>
						
							<rect x="246.593" y="151.568" transform="matrix(0.726 -0.6877 0.6877 0.726 -61.3737 221.44)" style="fill:#F69A2B;" width="1.161" height="72.326"/>
					</g>
					<g>
						
							<rect x="254.921" y="150.247" transform="matrix(0.7161 -0.698 0.698 0.7161 -54.1024 229.8485)" style="fill:#F69A2B;" width="1.161" height="62.371"/>
					</g>
					<g>
						
							<rect x="263.291" y="151.585" transform="matrix(0.7319 -0.6814 0.6814 0.7319 -48.9509 226.8746)" style="fill:#F69A2B;" width="1.161" height="48.133"/>
					</g>
				</g>
			</g>
			<g>
				<g>
					<path style="fill:#F69A2B;" d="M214.973,155.212c2.472,1.524,3.241,4.764,1.717,7.236c-1.524,2.472-4.764,3.241-7.236,1.717
						c-2.472-1.524-3.241-4.764-1.717-7.236C209.261,154.457,212.501,153.688,214.973,155.212z"/>
				</g>
				<g>
					<path style="fill:#F69A2B;" d="M174.42,189.134c2.472,1.524,3.241,4.764,1.717,7.236c-1.524,2.472-4.763,3.241-7.236,1.717
						c-2.472-1.524-3.241-4.764-1.717-7.236C168.708,188.379,171.947,187.61,174.42,189.134z"/>
				</g>
				<g>
					<path style="fill:#F69A2B;" d="M193.238,206.913c2.472,1.524,3.241,4.764,1.717,7.236c-1.524,2.472-4.764,3.241-7.236,1.717
						c-2.472-1.524-3.241-4.764-1.717-7.236C187.526,206.157,190.765,205.389,193.238,206.913z"/>
				</g>
				<g>
					<path style="fill:#F69A2B;" d="M78.425,131.749c0.501-2.861,3.226-4.774,6.087-4.273c2.861,0.501,4.773,3.226,4.272,6.087
						s-3.226,4.773-6.087,4.273C79.837,137.334,77.924,134.609,78.425,131.749z"/>
				</g>
				<g>
					<path style="fill:#F69A2B;" d="M182.205,162.889c2.472,1.524,3.241,4.764,1.717,7.236c-1.524,2.472-4.764,3.241-7.236,1.717
						c-2.472-1.524-3.241-4.764-1.717-7.236C176.493,162.133,179.733,161.365,182.205,162.889z"/>
				</g>
				<g>
					<path style="fill:#F69A2B;" d="M163.319,141.109c2.472,1.524,3.241,4.764,1.717,7.236c-1.524,2.472-4.764,3.241-7.236,1.717
						c-2.472-1.524-3.241-4.763-1.717-7.236C157.608,140.353,160.847,139.585,163.319,141.109z"/>
				</g>
				<g>
					<path style="fill:#F69A2B;" d="M172.912,115.063c2.472,1.524,3.241,4.763,1.717,7.236c-1.524,2.472-4.764,3.241-7.236,1.717
						c-2.472-1.524-3.241-4.764-1.717-7.236C167.2,114.308,170.439,113.539,172.912,115.063z"/>
				</g>
				<g>
					<path style="fill:#F69A2B;" d="M127.904,178.515c2.472,1.524,3.241,4.764,1.717,7.236c-1.524,2.472-4.764,3.241-7.236,1.717
						c-2.472-1.524-3.241-4.764-1.717-7.236C122.192,177.76,125.432,176.991,127.904,178.515z"/>
				</g>
				<g>
					<path style="fill:#F69A2B;" d="M132.537,150.96c2.472,1.524,3.241,4.764,1.717,7.236c-1.524,2.472-4.764,3.241-7.236,1.717
						c-2.472-1.524-3.241-4.763-1.717-7.236C126.825,150.204,130.065,149.436,132.537,150.96z"/>
				</g>
				<g>
					<path style="fill:#F69A2B;" d="M145.804,195.727c2.472,1.524,3.241,4.764,1.717,7.236c-1.524,2.472-4.764,3.241-7.236,1.717
						c-2.472-1.524-3.241-4.764-1.717-7.236C140.092,194.972,143.332,194.204,145.804,195.727z"/>
				</g>
				<g>
					<path style="fill:#F69A2B;" d="M106.154,128.92c0.501-2.861,3.226-4.773,6.087-4.272c2.861,0.501,4.774,3.226,4.273,6.087
						c-0.501,2.861-3.226,4.774-6.087,4.273C107.566,134.506,105.653,131.781,106.154,128.92z"/>
				</g>
				<g>
					<path style="fill:#F69A2B;" d="M233.277,175.367c2.472,1.524,3.241,4.764,1.717,7.236c-1.524,2.472-4.764,3.241-7.236,1.717
						c-2.472-1.524-3.241-4.764-1.717-7.236C227.565,174.611,230.805,173.842,233.277,175.367z"/>
				</g>
				<g>
					<path style="fill:#F69A2B;" d="M222.823,202.343c2.472,1.524,3.241,4.764,1.717,7.236c-1.524,2.472-4.764,3.241-7.236,1.717
						c-2.472-1.524-3.241-4.764-1.717-7.236C217.112,201.588,220.351,200.819,222.823,202.343z"/>
				</g>
				<g>
					<path style="fill:#F69A2B;" d="M172.056,194.033l-29.147,6.715l-0.191-0.166l-18.826-16.252l5.448-29.28l31.381-10.043
						l19.281,22.236L172.056,194.033z M143.179,199.659l28.085-6.47l7.624-25.704l-18.49-21.324l-30.183,9.659l-5.233,28.127
						L143.179,199.659z"/>
				</g>
				<g>
					<polygon style="fill:#F69A2B;" points="220.425,207.27 190.307,211.921 173.147,195.1 173.846,194.386 190.649,210.856 
						219.702,206.37 229.939,179.95 212.039,160.241 182.296,167.006 182.073,166.031 212.387,159.137 231.095,179.735 					"/>
				</g>
				<g>
					<polygon style="fill:#F69A2B;" points="111.578,129.3 130.201,156.293 129.378,156.86 111.091,130.354 83.656,133.153 
						83.554,132.158 					"/>
				</g>
				<g>
					
						<rect x="153.2" y="130.978" transform="matrix(0.3371 -0.9415 0.9415 0.3371 -13.8259 243.3191)" style="fill:#F69A2B;" width="25.361" height="1"/>
				</g>
			</g>
			<g>
				<g>
					<g>
						
							<linearGradient id="SVGID_00000176038555727105976690000000913200928411937449_" gradientUnits="userSpaceOnUse" x1="413.7839" y1="168.6388" x2="275.5845" y2="305.2029">
							<stop  offset="0" style="stop-color:#B9BDFF"/>
							<stop  offset="1" style="stop-color:#564DC1"/>
						</linearGradient>
						<path style="fill:url(#SVGID_00000176038555727105976690000000913200928411937449_);" d="M280.339,325.079
							c-5.61-27.988-5.038-63.484,6.15-89.744s32.017-48.706,58.299-59.843c14.587-6.181,30.399-8.833,45.456-13.759
							c11.666-3.816,22.882-9.007,33.342-15.431c1.153-0.708,7.191-5.337,7.191-5.337c1.193-0.007-0.227,8.451-0.591,11.3
							c-2.86,22.368-5.763,44.925-13.158,66.228c-7.395,21.304-19.713,41.538-38.121,54.565
							c-15.34,10.856-33.825,16.065-51.502,22.441C309.727,301.877,291.772,310.164,280.339,325.079"/>
					</g>
					<g>
						<g>
							<path style="fill:#FFFFFF;" d="M285.846,315.984c2.694-13.591,8.147-26.458,15.25-38.314
								c7.183-11.989,15.967-22.954,25.478-33.169c10.467-11.241,21.784-21.706,33.752-31.33
								c11.019-8.86,22.727-16.801,33.951-25.391c10.838-8.296,21.293-17.278,29.685-28.112c1-1.291,1.97-2.606,2.908-3.943
								c0.43-0.613-0.576-1.193-1.002-0.586c-7.94,11.317-18.222,20.702-29.04,29.207c-10.977,8.63-22.564,16.447-33.573,25.036
								c-12.248,9.555-23.811,19.989-34.567,31.196c-9.64,10.045-18.621,20.802-26.137,32.541
								c-7.426,11.599-13.399,24.227-16.727,37.627c-0.406,1.634-0.77,3.278-1.097,4.929
								C284.582,316.405,285.701,316.717,285.846,315.984L285.846,315.984z"/>
						</g>
						<g>
							<path style="fill:#FFFFFF;" d="M302.126,275.948c4.919-6.126,10.777-11.432,17.187-15.959
								c6.406-4.524,13.314-8.298,20.404-11.63c3.717-1.747,7.482-3.411,11.309-4.904c4.266-1.665,8.608-3.124,12.95-4.577
								c8.151-2.728,16.355-5.455,23.987-9.462c6.795-3.568,13.207-8.165,18.01-14.213c0.592-0.746,1.161-1.51,1.703-2.292
								c0.427-0.615-0.579-1.196-1.002-0.586c-4.423,6.374-10.628,11.253-17.344,15.028c-7.407,4.163-15.445,6.978-23.474,9.673
								c-4.341,1.457-8.694,2.886-12.984,4.488c-3.931,1.468-7.791,3.117-11.609,4.857c-7.116,3.243-14.068,6.892-20.564,11.259
								c-6.434,4.325-12.414,9.364-17.501,15.229c-0.646,0.744-1.276,1.501-1.892,2.27
								C300.843,275.704,301.659,276.531,302.126,275.948L302.126,275.948z"/>
						</g>
						<g>
							<path style="fill:#FFFFFF;" d="M314.529,258.235c0.156-5.379,0.794-10.737,1.813-16.02c1.073-5.566,2.561-11.053,4.42-16.408
								c1.88-5.416,4.145-10.699,6.807-15.777c2.617-4.993,5.619-9.794,9.053-14.267c3.25-4.232,6.915-8.171,11.01-11.597
								c0.492-0.411,0.99-0.815,1.494-1.211c0.248-0.195,0.201-0.616,0-0.821c-0.241-0.246-0.576-0.193-0.821,0
								c-4.224,3.322-8.001,7.187-11.37,11.368c-3.554,4.411-6.672,9.163-9.396,14.127c-2.794,5.092-5.179,10.409-7.18,15.861
								c-1.973,5.376-3.569,10.893-4.75,16.497c-1.132,5.373-1.891,10.836-2.166,16.322c-0.032,0.642-0.057,1.284-0.076,1.926
								C313.347,258.982,314.508,258.982,314.529,258.235L314.529,258.235z"/>
						</g>
						<g>
							<path style="fill:#FFFFFF;" d="M375.063,201.79c1.745-4.515,3.656-8.969,5.836-13.292c2.285-4.532,4.853-8.992,8.042-12.955
								c1.609-2,3.387-3.881,5.418-5.458c0.248-0.192,0.202-0.618,0-0.82c-0.245-0.245-0.572-0.193-0.82,0
								c-3.809,2.957-6.78,6.933-9.337,10.982c-2.788,4.414-5.126,9.106-7.227,13.881c-1.068,2.427-2.074,4.882-3.03,7.355
								c-0.113,0.292,0.125,0.637,0.405,0.714C374.677,202.285,374.95,202.083,375.063,201.79L375.063,201.79z"/>
						</g>
					</g>
				</g>
				<g>
					<g>
						
							<linearGradient id="SVGID_00000158003696457491772800000006004698810831608232_" gradientUnits="userSpaceOnUse" x1="125.0019" y1="266.5971" x2="9.6337" y2="380.6003" gradientTransform="matrix(-0.8581 0.5135 0.5135 0.8581 2.9836 -0.8269)">
							<stop  offset="0" style="stop-color:#B9BDFF"/>
							<stop  offset="1" style="stop-color:#564DC1"/>
						</linearGradient>
						<path style="fill:url(#SVGID_00000158003696457491772800000006004698810831608232_);" d="M195.286,346.976
							c-7.98-22.453-23.607-47.634-42.879-61.648c-19.272-14.014-43.814-21.163-67.415-17.873
							c-13.098,1.826-25.562,6.705-38.459,9.632c-9.993,2.267-20.252,3.358-30.498,3.24c-1.129-0.013-7.439-0.74-7.439-0.74
							c-0.857,0.506,3.786,5.956,5.268,7.841c11.638,14.797,23.387,29.709,37.817,41.799c14.43,12.09,31.929,21.303,50.698,22.743
							c15.642,1.2,31.116-2.994,46.512-6.004C164.288,342.955,180.702,341.194,195.286,346.976"/>
					</g>
					<g>
						<g>
							<path style="fill:#FFFFFF;" d="M187.442,342.822c-7.756-8.58-17.178-15.46-27.349-20.907
								c-10.285-5.508-21.278-9.597-32.47-12.836c-12.316-3.565-24.909-6.21-37.608-7.973c-11.691-1.623-23.482-2.292-35.205-3.634
								c-11.32-1.296-22.66-3.248-33.315-7.411c-1.27-0.496-2.528-1.022-3.774-1.578c-0.57-0.255-0.099-1.102,0.467-0.849
								c10.539,4.703,21.927,7.017,33.323,8.471c11.563,1.476,23.214,2.108,34.781,3.54c12.87,1.594,25.625,4.111,38.135,7.527
								c11.212,3.062,22.256,6.918,32.672,12.105c10.292,5.125,19.984,11.61,28.113,19.782c0.991,0.996,1.957,2.018,2.899,3.061
								C188.527,342.582,187.86,343.285,187.442,342.822L187.442,342.822z"/>
						</g>
						<g>
							<path style="fill:#FFFFFF;" d="M158.617,321.124c-6.15-2.28-12.62-3.569-19.153-4.064
								c-6.528-0.494-13.094-0.236-19.602,0.416c-3.411,0.342-6.822,0.764-10.203,1.335c-3.77,0.636-7.506,1.453-11.239,2.273
								c-7.008,1.54-14.054,3.104-21.238,3.505c-6.397,0.357-12.961-0.187-18.994-2.46c-0.744-0.28-1.479-0.584-2.203-0.911
								c-0.569-0.258-0.098-1.105,0.467-0.849c5.901,2.67,12.438,3.504,18.866,3.329c7.09-0.194,14.055-1.623,20.962-3.134
								c3.734-0.817,7.465-1.66,11.225-2.351c3.445-0.634,6.917-1.107,10.398-1.497c6.487-0.728,13.032-1.094,19.556-0.751
								c6.463,0.34,12.907,1.386,19.065,3.406c0.781,0.256,1.557,0.529,2.328,0.815C159.432,320.399,159.201,321.34,158.617,321.124
								L158.617,321.124z"/>
						</g>
						<g>
							<path style="fill:#FFFFFF;" d="M142.139,313.753c-2.418-3.786-5.172-7.351-8.166-10.698c-3.155-3.527-6.573-6.819-10.2-9.858
								c-3.668-3.074-7.555-5.887-11.639-8.383c-4.016-2.455-8.223-4.607-12.602-6.339c-4.142-1.638-8.456-2.888-12.858-3.587
								c-0.529-0.084-1.059-0.159-1.59-0.227c-0.262-0.033-0.408-0.355-0.352-0.588c0.067-0.279,0.33-0.385,0.588-0.352
								c4.45,0.568,8.812,1.718,13.018,3.269c4.436,1.636,8.707,3.703,12.786,6.091c4.184,2.45,8.172,5.236,11.943,8.283
								c3.718,3.005,7.226,6.273,10.475,9.781c3.115,3.363,6,6.951,8.549,10.763c0.298,0.446,0.591,0.895,0.88,1.347
								C143.306,313.781,142.474,314.278,142.139,313.753L142.139,313.753z"/>
						</g>
						<g>
							<path style="fill:#FFFFFF;" d="M74.579,299.271c-3.185-2.486-6.464-4.857-9.879-7.02c-3.58-2.266-7.331-4.36-11.314-5.832
								c-2.01-0.743-4.09-1.328-6.221-1.587c-0.26-0.032-0.41-0.356-0.352-0.588c0.07-0.28,0.327-0.383,0.588-0.352
								c3.996,0.485,7.829,2.06,11.396,3.864c3.889,1.967,7.576,4.325,11.128,6.844c1.806,1.281,3.578,2.608,5.324,3.97
								c0.206,0.161,0.184,0.509,0.016,0.685C75.068,299.46,74.786,299.433,74.579,299.271L74.579,299.271z"/>
						</g>
					</g>
				</g>
				<g>
					<g style="opacity:0.6;">
						
							<linearGradient id="SVGID_00000027606023944634465240000008089217542446056084_" gradientUnits="userSpaceOnUse" x1="-29.541" y1="171.0543" x2="-167.7404" y2="307.6184" gradientTransform="matrix(-1 0 0 1 23.2637 0)">
							<stop  offset="0" style="stop-color:#B9BDFF"/>
							<stop  offset="1" style="stop-color:#564DC1"/>
						</linearGradient>
						<path style="fill:url(#SVGID_00000027606023944634465240000008089217542446056084_);" d="M186.25,327.494
							c5.609-27.988,5.038-63.484-6.15-89.744c-11.188-26.26-32.017-48.706-58.299-59.843c-14.587-6.181-30.399-8.833-45.456-13.759
							c-11.666-3.816-22.882-9.007-33.342-15.431c-1.153-0.708-7.191-5.337-7.191-5.337c-1.193-0.007,0.227,8.451,0.591,11.3
							c2.86,22.368,5.763,44.925,13.158,66.228s19.713,41.538,38.121,54.565c15.34,10.856,33.825,16.065,51.502,22.441
							C156.862,304.293,174.817,312.58,186.25,327.494"/>
					</g>
					<g>
						<g>
							<path style="fill:#FFFFFF;" d="M180.743,318.4c-2.694-13.591-8.147-26.458-15.25-38.314
								c-7.183-11.989-15.967-22.954-25.478-33.169c-10.467-11.241-21.784-21.706-33.752-31.33
								c-11.019-8.86-22.727-16.801-33.951-25.391c-10.838-8.296-21.293-17.278-29.685-28.112c-1-1.292-1.97-2.606-2.908-3.943
								c-0.43-0.613,0.576-1.193,1.002-0.586c7.94,11.317,18.222,20.702,29.04,29.207c10.977,8.63,22.564,16.447,33.573,25.036
								c12.248,9.555,23.811,19.989,34.567,31.197c9.64,10.044,18.621,20.802,26.137,32.541
								c7.426,11.599,13.399,24.227,16.727,37.627c0.406,1.634,0.77,3.278,1.097,4.929
								C182.006,318.82,180.888,319.133,180.743,318.4L180.743,318.4z"/>
						</g>
						<g>
							<path style="fill:#FFFFFF;" d="M164.462,278.363c-4.919-6.126-10.777-11.432-17.187-15.959
								c-6.406-4.524-13.314-8.298-20.404-11.63c-3.717-1.747-7.482-3.411-11.309-4.904c-4.266-1.665-8.608-3.124-12.95-4.577
								c-8.151-2.728-16.355-5.455-23.987-9.462c-6.795-3.568-13.207-8.165-18.01-14.213c-0.592-0.746-1.161-1.51-1.704-2.292
								c-0.427-0.615,0.579-1.196,1.002-0.586c4.423,6.374,10.628,11.253,17.345,15.028c7.407,4.163,15.445,6.978,23.474,9.673
								c4.341,1.457,8.694,2.886,12.984,4.488c3.931,1.468,7.791,3.117,11.609,4.857c7.115,3.243,14.068,6.892,20.564,11.259
								c6.434,4.325,12.414,9.364,17.501,15.229c0.646,0.744,1.276,1.501,1.892,2.27C165.746,278.12,164.93,278.946,164.462,278.363
								L164.462,278.363z"/>
						</g>
						<g>
							<path style="fill:#FFFFFF;" d="M152.059,260.651c-0.156-5.379-0.794-10.737-1.813-16.02
								c-1.073-5.566-2.561-11.053-4.42-16.408c-1.88-5.416-4.145-10.699-6.807-15.777c-2.617-4.993-5.619-9.794-9.054-14.267
								c-3.25-4.232-6.915-8.171-11.01-11.597c-0.492-0.411-0.99-0.815-1.494-1.211c-0.248-0.195-0.201-0.616,0-0.82
								c0.241-0.246,0.575-0.193,0.82,0c4.224,3.321,8.001,7.187,11.37,11.368c3.554,4.411,6.672,9.163,9.396,14.127
								c2.794,5.092,5.179,10.409,7.18,15.861c1.973,5.376,3.569,10.893,4.749,16.497c1.132,5.373,1.891,10.836,2.166,16.322
								c0.032,0.642,0.057,1.284,0.076,1.926C153.241,261.398,152.081,261.397,152.059,260.651L152.059,260.651z"/>
						</g>
						<g>
							<path style="fill:#FFFFFF;" d="M91.525,204.205c-1.745-4.515-3.656-8.969-5.836-13.292
								c-2.285-4.532-4.853-8.992-8.042-12.955c-1.609-2-3.387-3.881-5.418-5.458c-0.248-0.192-0.202-0.618,0-0.82
								c0.244-0.245,0.572-0.193,0.821,0c3.809,2.957,6.78,6.933,9.337,10.982c2.788,4.414,5.126,9.106,7.227,13.881
								c1.068,2.427,2.074,4.882,3.03,7.355c0.113,0.292-0.125,0.637-0.405,0.714C91.911,204.7,91.639,204.498,91.525,204.205
								L91.525,204.205z"/>
						</g>
					</g>
				</g>
				<g>
					<g style="opacity:0.6;">
						
							<linearGradient id="SVGID_00000146501270854801024850000008855357657295234482_" gradientUnits="userSpaceOnUse" x1="-466.0497" y1="288.4748" x2="-582.9719" y2="404.0135" gradientTransform="matrix(0.838 0.5456 -0.5456 0.838 991.7175 305.9331)">
							<stop  offset="0" style="stop-color:#B9BDFF"/>
							<stop  offset="1" style="stop-color:#564DC1"/>
						</linearGradient>
						<path style="fill:url(#SVGID_00000146501270854801024850000008855357657295234482_);" d="M276.926,342.72
							c8.942-22.433,25.733-47.336,45.787-60.791c20.054-13.455,45.184-19.754,68.959-15.518c13.195,2.351,25.631,7.77,38.58,11.228
							c10.033,2.679,20.382,4.176,30.763,4.45c1.144,0.03,7.562-0.464,7.562-0.464c0.849,0.546-4.062,5.887-5.635,7.739
							c-12.353,14.539-24.824,29.192-39.901,40.883c-15.077,11.691-33.152,20.351-52.216,21.091
							c-15.887,0.616-31.398-4.224-46.875-7.863C308.473,339.836,291.917,337.424,276.926,342.72"/>
					</g>
					<g>
						<g>
							<path style="fill:#FFFFFF;" d="M285.029,338.815c8.184-8.392,17.989-14.998,28.499-20.126
								c10.627-5.185,21.917-8.904,33.375-11.756c12.61-3.138,25.465-5.335,38.393-6.633c11.903-1.196,23.869-1.421,35.793-2.331
								c11.514-0.879,23.073-2.421,34.024-6.229c1.306-0.454,2.6-0.939,3.882-1.454c0.587-0.236,0.143-1.112-0.44-0.878
								c-10.853,4.359-22.476,6.266-34.072,7.302c-11.767,1.052-23.59,1.245-35.36,2.253c-13.095,1.121-26.109,3.181-38.909,6.162
								c-11.472,2.672-22.805,6.154-33.553,11.007c-10.619,4.796-20.684,10.992-29.229,18.957c-1.042,0.971-2.059,1.969-3.053,2.988
								C283.939,338.53,284.587,339.267,285.029,338.815L285.029,338.815z"/>
						</g>
						<g>
							<path style="fill:#FFFFFF;" d="M315.053,317.944c6.316-2.073,12.918-3.131,19.553-3.382c6.63-0.25,13.27,0.263,19.836,1.173
								c3.442,0.477,6.88,1.036,10.282,1.743c3.793,0.789,7.546,1.759,11.295,2.733c7.038,1.828,14.114,3.682,21.375,4.364
								c6.465,0.607,13.133,0.308,19.33-1.763c0.764-0.255,1.52-0.535,2.266-0.839c0.586-0.239,0.142-1.115-0.44-0.878
								c-6.078,2.478-12.73,3.073-19.235,2.648c-7.173-0.468-14.172-2.182-21.109-3.978c-3.751-0.971-7.496-1.967-11.278-2.811
								c-3.464-0.774-6.963-1.386-10.473-1.915c-6.542-0.986-13.156-1.607-19.777-1.51c-6.559,0.097-13.124,0.909-19.439,2.719
								c-0.801,0.23-1.597,0.476-2.389,0.735C314.255,317.178,314.452,318.141,315.053,317.944L315.053,317.944z"/>
						</g>
						<g>
							<path style="fill:#FFFFFF;" d="M332.023,311.11c2.594-3.742,5.52-7.246,8.68-10.522c3.33-3.451,6.918-6.654,10.708-9.593
								c3.833-2.972,7.877-5.672,12.109-8.044c4.161-2.332,8.505-4.351,13.005-5.936c4.258-1.5,8.675-2.601,13.16-3.14
								c0.539-0.065,1.078-0.121,1.618-0.169c0.266-0.024,0.426-0.344,0.379-0.582c-0.057-0.285-0.319-0.402-0.582-0.379
								c-4.528,0.405-8.99,1.402-13.309,2.812c-4.556,1.487-8.96,3.416-13.183,5.679c-4.331,2.321-8.477,4.989-12.412,7.931
								c-3.881,2.901-7.559,6.076-10.983,9.505c-3.283,3.287-6.343,6.81-9.07,10.572c-0.319,0.44-0.633,0.884-0.943,1.331
								C330.84,311.094,331.663,311.629,332.023,311.11L332.023,311.11z"/>
						</g>
						<g>
							<path style="fill:#FFFFFF;" d="M400.999,299.033c3.321-2.396,6.733-4.672,10.274-6.73c3.712-2.158,7.592-4.135,11.682-5.473
								c2.064-0.675,4.193-1.189,6.361-1.369c0.264-0.022,0.429-0.345,0.379-0.582c-0.06-0.286-0.317-0.401-0.582-0.379
								c-4.066,0.338-8.007,1.786-11.689,3.476c-4.014,1.843-7.838,4.09-11.532,6.505c-1.878,1.228-3.724,2.504-5.544,3.816
								c-0.215,0.155-0.206,0.509-0.042,0.693C400.496,299.206,400.783,299.189,400.999,299.033L400.999,299.033z"/>
						</g>
					</g>
				</g>
			</g>
			<g>
				<path style="fill:#FF94A9;" d="M257.206,224.27"/>
			</g>
			<g>
				<path style="fill:#F46969;" d="M246.34,222.482c0.027,0.267,0.115,0.52,0.297,0.744c0.303,0.373,0.783,0.545,1.242,0.686
					c0.523,0.16,1.054,0.296,1.587,0.419C248.362,223.811,247.317,223.197,246.34,222.482z"/>
			</g>
			<g>
				<g>
					<path style="fill:#1C3077;" d="M122.459,270.501c3.859-0.712,6.41-4.418,5.698-8.277v0c-0.712-3.859-4.418-6.41-8.277-5.698
						l-8.632,1.593l2.579,13.975L122.459,270.501z"/>
					<path style="fill:#F69A2B;" d="M111.248,258.118l-8.632,1.593c-3.859,0.712-6.41,4.418-5.698,8.277l0,0
						c0.712,3.859,4.418,6.41,8.277,5.698l8.632-1.593L111.248,258.118z"/>
				</g>
				<g>
					<path style="fill:#1C3077;" d="M113.834,222.194c2.358-3.137,1.726-7.592-1.411-9.949v0c-3.137-2.358-7.591-1.726-9.949,1.411
						l-5.274,7.017l11.36,8.538L113.834,222.194z"/>
					<path style="fill:#F69A2B;" d="M97.201,220.672l-5.274,7.017c-2.358,3.137-1.726,7.592,1.411,9.949l0,0
						c3.137,2.358,7.591,1.726,9.949-1.411l5.274-7.017L97.201,220.672z"/>
				</g>
				<g>
					<path style="fill:#1C3077;" d="M74.491,234.279c-0.313-3.912-3.737-6.83-7.649-6.517h0c-3.912,0.313-6.83,3.737-6.517,7.649
						l0.699,8.75l14.166-1.132L74.491,234.279z"/>
					<path style="fill:#F69A2B;" d="M61.024,244.161l0.699,8.75c0.313,3.912,3.737,6.83,7.649,6.517h0
						c3.912-0.313,6.83-3.737,6.517-7.649l-0.699-8.75L61.024,244.161z"/>
				</g>
			</g>
			<g>
				<path style="fill:#E1EBF9;" d="M356.384,288.31v-43.035h-34.18v43.056c0,4.611-2.793,8.769-7.072,10.488
					c-22.263,8.945-38.105,30.492-38.681,55.815c-0.77,33.839,26.333,62.293,60.171,63.093
					c34.748,0.821,63.174-27.101,63.174-61.663c0-24.819-14.659-46.213-35.791-55.998
					C359.397,297.931,356.384,293.388,356.384,288.31z"/>
				<path style="fill:#F69A2B;" d="M278.584,339.909c-1.276,4.71-2.017,9.639-2.132,14.725
					c-0.77,33.839,26.333,62.293,60.171,63.093c34.748,0.821,63.174-27.101,63.174-61.663c0-6.386-0.977-12.543-2.779-18.336
					C357.55,338.931,318.069,339.659,278.584,339.909z"/>
				<path style="fill:#EA871B;" d="M305.883,346.318c9.461,1.132,18.888,0.597,28.313-0.607c10.067-1.286,19.983-3.504,30.033-4.87
					c8.552-1.162,17.195-1.453,25.708-2.852c0.01-0.022,0.021-0.045,0.031-0.067c-37.024,1.076-74.059,1.748-111.097,1.985
					C287.683,342.737,296.676,345.216,305.883,346.318z"/>
				<path style="fill:#EA871B;" d="M399.08,346.762c-3.629,11.205-11.526,21.897-19.361,30.44
					c-8.446,9.208-18.904,15.716-30.462,20.333c-12.771,5.102-26.216,3.923-39.539,2.032c-7.671-1.089-14.882-3.391-21.336-7.208
					c10.95,14.951,28.436,24.9,48.241,25.368c34.748,0.821,63.174-27.101,63.174-61.663
					C399.796,352.899,399.543,349.796,399.08,346.762z"/>
				<path style="fill:#1D3078;" d="M338.129,418.202c-0.505,0-1.009-0.006-1.516-0.018c-34.203-0.809-61.397-29.322-60.618-63.56
					c0.567-24.874,15.862-46.946,38.968-56.229c4.121-1.656,6.785-5.606,6.785-10.064v-43.514h35.094v43.493
					c0,4.82,2.887,9.271,7.355,11.341c21.903,10.143,36.057,32.286,36.057,56.413c0,16.875-6.65,32.663-18.725,44.456
					C369.82,411.955,354.458,418.202,338.129,418.202z M322.662,245.732v42.599c0,4.833-2.888,9.116-7.358,10.912
					c-22.766,9.147-37.837,30.894-38.395,55.401c-0.767,33.736,26.026,61.829,59.725,62.626
					c16.639,0.376,32.363-5.788,44.257-17.404c11.897-11.62,18.449-27.176,18.449-43.802c0-23.772-13.945-45.589-35.526-55.583
					c-4.79-2.219-7.886-6.996-7.886-12.171v-42.578H322.662z"/>
				<path style="fill:#1D3078;" d="M357.604,253.132h-36.618c-1.605,0-2.906-1.301-2.906-2.906v-2.046
					c0-1.605,1.301-2.906,2.906-2.906h36.618c1.605,0,2.906,1.301,2.906,2.906v2.046
					C360.509,251.831,359.209,253.132,357.604,253.132z"/>
				<path style="opacity:0.56;fill:#FFFFFF;" d="M356.456,307.727c0,0,27.86,33.037,16.272,72.731
					C372.728,380.459,406.629,330.286,356.456,307.727z"/>
				<circle style="fill:#EA871B;" cx="295.559" cy="366.652" r="4.191"/>
				<circle style="fill:#EA871B;" cx="339.898" cy="387.691" r="4.191"/>
				<circle style="fill:#EA871B;" cx="354.566" cy="354.489" r="4.191"/>
				<circle style="fill:#EA871B;" cx="362.949" cy="374.367" r="2.373"/>
				<path style="fill:#EA871B;" d="M302.123,385.872c0,1.31-1.062,2.373-2.373,2.373s-2.373-1.062-2.373-2.373
					s1.062-2.373,2.373-2.373S302.123,384.562,302.123,385.872z"/>
				<path style="fill:#EA871B;" d="M329.706,361.053c0,1.31-1.062,2.373-2.373,2.373s-2.373-1.062-2.373-2.373
					c0-1.31,1.062-2.373,2.373-2.373S329.706,359.743,329.706,361.053z"/>
			</g>
			<g>
				<g>
					<g>
						<g>
							<path style="fill:#FF8181;" d="M247.027,202.896c2.895,5.268,2.911,12.01,0.039,17.291c-0.521,0.958-1.117,2.193-0.429,3.039
								c0.303,0.373,0.783,0.545,1.242,0.686c3.424,1.05,7.09,1.303,10.626,0.731c0.94-0.152,1.915-0.382,2.631-1.011
								c0.134-0.118,0.263-0.259,0.298-0.434c0.069-0.344-0.235-0.636-0.493-0.872c-1.909-1.741-2.825-4.362-3.014-6.939
								s0.274-5.152,0.735-7.694"/>
						</g>
						<g>
							<path style="fill:#F46969;" d="M249.263,210.163c1.365,4.521,4.866,6.034,8.822,6.473c-0.07-0.415-0.127-0.832-0.158-1.249
								c-0.189-2.577,0.274-5.152,0.734-7.694l-11.635-4.797c1.158,2.107,1.847,4.45,2.083,6.84
								C249.165,209.875,249.218,210.015,249.263,210.163z"/>
						</g>
					</g>
					<g>
						<g>
							<path style="fill:#1C3077;" d="M254.721,336.339c-1.057,4.004-1.516,8.139-1.971,12.255
								c-1.866,16.863-3.732,33.727-5.598,50.59c-0.077,0.695-0.179,1.446-0.671,1.943c-0.699,0.708-1.848,0.6-2.83,0.443
								c-2.398-0.386-4.796-0.771-7.193-1.157c-0.412-0.066-0.865-0.156-1.119-0.487c-0.195-0.254-0.226-0.594-0.25-0.914
								c-1.327-18.019-2.655-36.081-1.989-54.137c0.311-8.43,1.056-16.845,1.121-25.281"/>
						</g>
						<g>
							<path style="fill:#1C3077;" d="M236.296,398.707c-0.217,1.582-0.824,4.821-1.041,6.402c-0.148,1.074-0.275,2.25,0.302,3.168
								c0.772,1.229,2.436,1.462,3.884,1.551c4.656,0.286,9.321,0.353,13.985,0.421c1.902,0.028,2.862,0.042,4.764,0.069
								c0.481,0.007,1.746-0.252,2.071-0.608c0.707-0.773-0.037-2.109-0.135-2.253c-2.001-2.934-5.366-2.544-8.842-3.274
								c-2.285-0.48-4.724-1.19-6.47-2.74"/>
						</g>
					</g>
					<g>
						<g>
							<path style="fill:#1C3077;" d="M258.945,336.485c0.778,4.068,0.95,8.224,1.12,12.362c0.696,16.952,1.392,33.904,2.088,50.856
								c0.029,0.699,0.079,1.455,0.535,1.985c0.648,0.754,1.803,0.727,2.793,0.637c2.419-0.219,4.837-0.438,7.256-0.657
								c0.416-0.038,0.874-0.096,1.15-0.408c0.212-0.24,0.267-0.577,0.312-0.895c2.569-17.884,5.142-35.812,5.726-53.87
								c0.273-8.432,0.111-16.878,0.629-25.298"/>
						</g>
						<g>
							<path style="fill:#1C3077;" d="M263.8,401.33c-0.217,1.581-0.435,3.163-0.652,4.744c-0.147,1.074-0.275,2.25,0.302,3.168
								c0.772,1.229,2.436,1.462,3.884,1.551c4.656,0.286,9.321,0.353,13.985,0.421c1.902,0.028,2.862,0.042,4.764,0.069
								c0.481,0.007,1.746-0.252,2.071-0.608c0.707-0.773-0.037-2.109-0.135-2.253c-2.001-2.934-5.366-2.544-8.841-3.274
								c-2.285-0.48-7.289-1.837-7.333-4.47"/>
						</g>
					</g>
					<g>
						<g>
							<g>
								<path style="fill:#FF8181;" d="M317.592,224.004c0.875-0.945,1.763-1.879,2.664-2.8c0.369-0.378,0.746-0.758,1.202-1.023
									c1.184-0.689,2.657-0.494,4.023-0.399c3.385,0.236,6.821-0.292,9.98-1.533c0.497-0.195,1.034-0.412,1.551-0.275
									c0.674,0.178,1.069,0.935,1.037,1.631c-0.049,1.026-0.842,1.897-1.769,2.339c-0.927,0.442-1.975,0.538-2.999,0.626
									c-1.253,0.108-2.505,0.216-3.758,0.325c-1.541,0.133-3.103,0.271-4.558,0.796c-1.455,0.525-2.815,1.493-3.479,2.89"/>
							</g>
							<path style="fill:#F5F7FD;" d="M276.324,223.807l19.032,18.458l21.209-21.352l8.639,6.87c0,0-17.3,22.473-28.069,30.801
								c-0.907,0.701-2.079,0.809-3.086,0.311c-3.482-1.723-11.711-6.151-15.622-11.28
								C273.389,241.011,276.324,223.807,276.324,223.807z"/>
						</g>
						<path style="fill:#1131C6;" d="M248.88,218.594c1.788,1.054,5.587,2.656,9.415,0.231c0.532-0.337,1.195-0.397,1.782-0.17
							l2.964,1.148l-1.586,45.83l-16.865-44.278l2.282-2.454C247.39,218.343,248.224,218.207,248.88,218.594z"/>
						<path style="fill:#F5F7FD;" d="M246.285,219.391c0,0,10.795,20.212,13.536,27.262l3.249,94.037c0,0-15.791,2.115-39.195-2.112
							c0,0,9.472-61.523,9.036-76.588c-0.355-12.275-1.811-27.073-2.338-32.132c-0.114-1.093,0.441-2.141,1.406-2.668
							L246.285,219.391z"/>
						<path style="fill:#F5F7FD;" d="M260.778,218.983l-0.98,28.323l3.271,93.385l25.553-1.76c0,0-5.895-40.482-8.269-69.277
							c-1.901-23.06-2.858-38.668-3.164-43.972c-0.069-1.203-0.89-2.225-2.048-2.559L260.778,218.983z"/>
						<path style="fill:#DFE4EF;" d="M259.821,246.653l-13.606-10.721l3.224-5.014l-6.317-0.829l-0.202-8.865l3.365-1.834
							C246.285,219.391,257.792,240.177,259.821,246.653z"/>
						<path style="fill:#DFE4EF;" d="M259.821,246.653l7.893-13.719l-4.143-2.828l4.933-1.212l-2.567-8.424l-5.159-1.487
							C260.778,218.983,259.504,241.557,259.821,246.653z"/>
						<polygon style="fill:#DFE4EF;" points="249.442,294.005 231.385,293.381 232.325,287.556 249.644,288.155 						"/>
						<polygon style="fill:#DFE4EF;" points="274.073,293.762 283.007,293.338 282.364,287.508 273.796,287.915 						"/>
						<polygon style="fill:#DFE4EF;" points="259.858,246.303 260.418,340.942 261.909,340.816 260.407,244.505 						"/>
						<path style="fill:#DFE4EF;" d="M232.228,274.759l0.854-7.364l27.123-8.462C260.205,258.932,252.387,269.426,232.228,274.759z"
							/>
						<path style="fill:#DFE4EF;" d="M235.951,248.154c0,0,0.411,2.231,0.966,5.882c0.554,3.651,16.94-0.416,16.94-0.416
							s-14.086,14.096-19.542,11.929c-5.456-2.167-2.139-13.565-2.139-13.565l1.909-8.388L235.951,248.154z"/>
						<path style="fill:#11215E;" d="M274.092,270.403l-20.924,1.672c-0.883,0.071-1.657-0.588-1.727-1.472l-2.5-31.275
							c-0.071-0.883,0.588-1.657,1.472-1.727l20.924-1.672c0.884-0.071,1.657,0.588,1.728,1.472l2.5,31.275
							C275.634,269.559,274.975,270.332,274.092,270.403z"/>
						<g>
							<g>
								<path style="fill:#FF8181;" d="M255.534,254.712c1.049,0.31,2.185-0.188,3.007-0.91c0.821-0.722,1.425-1.655,2.169-2.456
									c1.326-1.428,3.038-1.976,4.95-2.353c0.527-0.104,1.335-0.471,1.414,0.06c0.027,0.179-0.04,0.359-0.123,0.521
									c-0.746,1.457-3.302,1.429-3.205,3.063c3.582-1.232,7.613-1.629,11.195-2.861c0.47-0.162,1.08-0.287,1.391,0.101
									c0.308,0.385,0.059,0.948-0.199,1.368c-2.408,3.92-5.033,6.716-9.476,7.911c-2.102,0.565-4.787,1.611-6.961,1.716
									c-2.174,0.105-4.449,0.48-6.153,1.834"/>
							</g>
							<path style="fill:#F5F7FD;" d="M231.007,228.085c0,0,5.176,9.958,4.942,21.42l-1.2,9.11l21.627-5.655l1.46,8.764
								c0,0-12.161,10.521-32.944,11.859c-1.812,0.117-3.343-1.34-3.336-3.156C221.587,262.091,223.079,239.971,231.007,228.085z"/>
						</g>
					</g>
					<g>
						<g>
							<path style="fill:#FF8181;" d="M244.869,186.824c-2.909,7.806-1.049,17.18,4.62,23.284c1.755,1.889,4.105,3.561,6.674,3.351
								c3.427-0.281,5.669-3.677,7-6.847c1.608-3.829,1.825-8.509,1.42-12.643c-0.405-4.134-1.613-7.72-5.18-9.847
								c-3.567-2.127-8.649-1.798-11.426,1.29"/>
						</g>
						<g>
							<g>
								<path style="fill:#FF8181;" d="M244.868,198.642c-0.779-1.188-2.125-1.458-2.888-0.669c-0.763,0.79-0.905,2.46-0.409,3.865
									c0.496,1.405,1.552,2.485,2.613,2.812c0.519,0.16,1.057,0.149,1.471-0.161c0.716-0.536,0.913-1.814,0.955-3.016"/>
							</g>
							<path style="fill:#F46969;" d="M244.95,201.203c0.233,0.746,0.101,1.452-0.296,1.576c-0.397,0.124-0.908-0.38-1.141-1.127
								c-0.233-0.746-0.101-1.452,0.296-1.576C244.206,199.953,244.717,200.457,244.95,201.203z"/>
						</g>
						<g>
							<path style="fill:#0F1E57;" d="M263.042,198.804c-0.02,0.561-0.373,1.005-0.79,0.99c-0.417-0.014-0.74-0.481-0.72-1.042
								c0.019-0.561,0.373-1.005,0.79-0.99C262.739,197.776,263.061,198.243,263.042,198.804z"/>
							<path style="fill:#0F1E57;" d="M254.079,198.494c-0.019,0.561-0.373,1.005-0.79,0.99c-0.417-0.015-0.74-0.481-0.72-1.042
								c0.019-0.561,0.373-1.005,0.79-0.99C253.776,197.466,254.098,197.933,254.079,198.494z"/>
							<g>
								<path style="fill:#F46969;" d="M257.679,198.269c-0.138,0.504-0.127,1.066-0.083,1.581c0.121,1.424,0.626,2.781,1.308,4.027
									c0.045-0.151,0.09-0.302,0.136-0.453c-0.587,0.345-1.314,0.612-2.001,0.522c-0.427-0.056-0.447,0.613-0.023,0.669
									c0.794,0.104,1.662-0.203,2.341-0.601c0.155-0.091,0.225-0.29,0.136-0.453c-0.631-1.153-1.13-2.424-1.234-3.747
									c-0.027-0.344-0.029-0.692,0.007-1.035c0.006-0.053,0.013-0.106,0.02-0.159c0.015-0.112-0.006,0.025,0.008-0.049
									c0.007-0.034,0.013-0.068,0.023-0.101C258.431,198.054,257.793,197.854,257.679,198.269L257.679,198.269z"/>
							</g>
							<path style="fill:#0F1E57;" d="M255.367,194.97c0,0-1.336-0.67-2.986-0.542c-1.65,0.128-3.028,1.093-2.675,1.223
								c0.353,0.13,2.027-0.689,3.643-0.279c1.617,0.41,1.929,0.353,2.175,0.266C255.771,195.552,255.761,195.134,255.367,194.97z"
								/>
							<path style="fill:#0F1E57;" d="M259.879,195.126c0,0,1.154-0.584,2.519-0.351c1.365,0.233,2.451,1.282,2.149,1.39
								c-0.302,0.108-1.643-0.816-3.015-0.509c-1.372,0.307-1.628,0.23-1.827,0.128
								C259.505,195.681,259.541,195.265,259.879,195.126z"/>
							<path style="fill:#F46969;" d="M253.675,202.501c-0.033,0.965-1.048,1.713-2.267,1.671c-1.219-0.042-2.179-0.859-2.146-1.823
								c0.033-0.965,1.048-1.713,2.267-1.671C252.748,200.72,253.709,201.536,253.675,202.501z"/>
							<path style="fill:#F46969;" d="M264.276,202.601c-0.033,0.965-0.843,1.72-1.808,1.687c-0.965-0.033-1.72-0.843-1.687-1.808
								s0.843-1.72,1.807-1.687S264.309,201.636,264.276,202.601z"/>
							<path style="fill:#F46969;" d="M259.194,206.778c0,0-1.867-0.638-4.379-0.151
								C254.814,206.626,256.921,209.094,259.194,206.778z"/>
						</g>
						<g>
							<path style="fill:#0F1E57;" d="M270.533,186.086c-0.485-1.931-1.825-3.535-3.474-4.156c-2.686-1.012-5.763,0.507-8.415-0.617
								c-1.61-0.682-2.854-2.265-4.494-2.845c-2.071-0.733-4.327,0.29-6.141,1.696c-0.82,0.636-1.607,1.406-2.281,2.274
								c-0.561,0.722-1.345,1.189-2.215,1.278c-3.218,0.328-3.805,5.171-3.622,7.644c0.191,2.569,1.053,5.025,2.467,7.001
								c0.827,1.156,2.136,2.269,3.324,1.636c0.948-0.505,1.052-1.91,1.308-3.085c0.291-1.339,0.489-2.568,0.912-3.674
								c0.876-2.29,2.771-1.133,4.867-0.597c2.871,0.735,5.351,1.423,8.292,1.754c3.812,0.429,6.619,0.079,8.477-2.596
								C270.634,190.223,271.018,188.017,270.533,186.086z"/>
						</g>
					</g>
				</g>
				<g>
					<g>
						<path style="fill:#FFFFFF;" d="M318.985,214.638L318.985,214.638c-2.306,0.06-4.225-1.761-4.285-4.067l-0.679-26.057
							l8.353-0.218l0.679,26.057C323.112,212.659,321.291,214.578,318.985,214.638z"/>
						<path style="fill:#1133A2;" d="M318.99,214.863c-2.427,0.063-4.453-1.86-4.516-4.287l-0.685-26.282l8.803-0.23l0.685,26.282
							C323.341,212.774,321.417,214.8,318.99,214.863z M314.251,184.734l0.674,25.831c0.057,2.179,1.875,3.905,4.054,3.848
							c2.179-0.057,3.905-1.876,3.849-4.054l-0.674-25.831L314.251,184.734z"/>
					</g>
					<g>
						<path style="fill:#1133A2;" d="M322.22,185.391l-7.899,0.206c-0.552,0.014-1.01-0.421-1.025-0.973l0,0
							c-0.014-0.552,0.421-1.01,0.973-1.025l7.899-0.206c0.552-0.014,1.01,0.421,1.025,0.973l0,0
							C323.207,184.917,322.771,185.376,322.22,185.391z"/>
					</g>
					<g>
						<g>
							<defs>
								<path id="SVGID_00000140006154320178341470000002933417458426866816_" d="M315.012,200.487l0.255,9.79
									c0.053,2.03,1.708,3.634,3.697,3.582l0,0c1.989-0.052,3.558-1.74,3.505-3.77l-0.255-9.79L315.012,200.487z"/>
							</defs>
							<clipPath id="SVGID_00000012447643445876981100000015753484482119531402_">
								<use xlink:href="#SVGID_00000140006154320178341470000002933417458426866816_"  style="overflow:visible;"/>
							</clipPath>
							<polygon style="clip-path:url(#SVGID_00000012447643445876981100000015753484482119531402_);fill:#AEB1F8;" points="
								322.221,200.547 315.015,200.602 315.012,200.487 322.215,200.299 							"/>
							<polygon style="clip-path:url(#SVGID_00000012447643445876981100000015753484482119531402_);fill:#ADB0F8;" points="
								322.228,200.82 315.022,200.875 315.015,200.602 322.221,200.547 							"/>
							<polygon style="clip-path:url(#SVGID_00000012447643445876981100000015753484482119531402_);fill:#ADAFF7;" points="
								322.235,201.092 315.029,201.147 315.022,200.875 322.228,200.82 							"/>
							<polygon style="clip-path:url(#SVGID_00000012447643445876981100000015753484482119531402_);fill:#ACAEF7;" points="
								322.242,201.365 315.036,201.42 315.029,201.147 322.235,201.092 							"/>
							<polygon style="clip-path:url(#SVGID_00000012447643445876981100000015753484482119531402_);fill:#ABADF6;" points="
								322.249,201.637 315.043,201.692 315.036,201.42 322.242,201.365 							"/>
							<polygon style="clip-path:url(#SVGID_00000012447643445876981100000015753484482119531402_);fill:#AAACF6;" points="
								322.257,201.909 315.051,201.964 315.043,201.692 322.249,201.637 							"/>
							<polygon style="clip-path:url(#SVGID_00000012447643445876981100000015753484482119531402_);fill:#A9ABF5;" points="
								322.264,202.182 315.058,202.237 315.051,201.964 322.257,201.909 							"/>
							<polygon style="clip-path:url(#SVGID_00000012447643445876981100000015753484482119531402_);fill:#A8AAF4;" points="
								322.271,202.454 315.065,202.509 315.058,202.237 322.264,202.182 							"/>
							<polygon style="clip-path:url(#SVGID_00000012447643445876981100000015753484482119531402_);fill:#A7A9F4;" points="
								322.278,202.726 315.072,202.782 315.065,202.509 322.271,202.454 							"/>
							<polygon style="clip-path:url(#SVGID_00000012447643445876981100000015753484482119531402_);fill:#A6A8F3;" points="
								322.285,202.999 315.079,203.054 315.072,202.782 322.278,202.726 							"/>
							<polygon style="clip-path:url(#SVGID_00000012447643445876981100000015753484482119531402_);fill:#A5A7F3;" points="
								322.292,203.271 315.086,203.327 315.079,203.054 322.285,202.999 							"/>
							<polygon style="clip-path:url(#SVGID_00000012447643445876981100000015753484482119531402_);fill:#A4A6F2;" points="
								322.299,203.544 315.093,203.599 315.086,203.327 322.292,203.271 							"/>
							<polygon style="clip-path:url(#SVGID_00000012447643445876981100000015753484482119531402_);fill:#A4A5F2;" points="
								322.306,203.816 315.1,203.871 315.093,203.599 322.299,203.544 							"/>
							<polygon style="clip-path:url(#SVGID_00000012447643445876981100000015753484482119531402_);fill:#A3A4F1;" points="
								322.313,204.088 315.107,204.144 315.1,203.871 322.306,203.816 							"/>
							<polygon style="clip-path:url(#SVGID_00000012447643445876981100000015753484482119531402_);fill:#A2A3F0;" points="
								322.32,204.361 315.115,204.416 315.107,204.144 322.313,204.088 							"/>
							<polygon style="clip-path:url(#SVGID_00000012447643445876981100000015753484482119531402_);fill:#A1A2F0;" points="
								322.328,204.633 315.122,204.689 315.115,204.416 322.32,204.361 							"/>
							<polygon style="clip-path:url(#SVGID_00000012447643445876981100000015753484482119531402_);fill:#A0A1EF;" points="
								322.335,204.906 315.129,204.961 315.122,204.689 322.328,204.633 							"/>
							<polygon style="clip-path:url(#SVGID_00000012447643445876981100000015753484482119531402_);fill:#9FA0EF;" points="
								322.342,205.178 315.136,205.233 315.129,204.961 322.335,204.906 							"/>
							<polygon style="clip-path:url(#SVGID_00000012447643445876981100000015753484482119531402_);fill:#9E9FEE;" points="
								322.349,205.45 315.143,205.506 315.136,205.233 322.342,205.178 							"/>
							<polygon style="clip-path:url(#SVGID_00000012447643445876981100000015753484482119531402_);fill:#9D9EEE;" points="
								322.356,205.723 315.15,205.778 315.143,205.506 322.349,205.45 							"/>
							<polygon style="clip-path:url(#SVGID_00000012447643445876981100000015753484482119531402_);fill:#9C9DED;" points="
								322.363,205.995 315.157,206.05 315.15,205.778 322.356,205.723 							"/>
							<polygon style="clip-path:url(#SVGID_00000012447643445876981100000015753484482119531402_);fill:#9C9CED;" points="
								322.37,206.268 315.164,206.323 315.157,206.05 322.363,205.995 							"/>
							<polygon style="clip-path:url(#SVGID_00000012447643445876981100000015753484482119531402_);fill:#9B9BEC;" points="
								322.377,206.54 315.171,206.595 315.164,206.323 322.37,206.268 							"/>
							<polygon style="clip-path:url(#SVGID_00000012447643445876981100000015753484482119531402_);fill:#9A9AEB;" points="
								322.384,206.812 315.178,206.868 315.171,206.595 322.377,206.54 							"/>
							<polygon style="clip-path:url(#SVGID_00000012447643445876981100000015753484482119531402_);fill:#9999EB;" points="
								322.392,207.085 315.185,207.14 315.178,206.868 322.384,206.812 							"/>
							<polygon style="clip-path:url(#SVGID_00000012447643445876981100000015753484482119531402_);fill:#9898EA;" points="
								322.399,207.357 315.193,207.412 315.185,207.14 322.392,207.085 							"/>
							<polygon style="clip-path:url(#SVGID_00000012447643445876981100000015753484482119531402_);fill:#9797EA;" points="
								322.406,207.63 315.2,207.685 315.193,207.412 322.399,207.357 							"/>
							<polygon style="clip-path:url(#SVGID_00000012447643445876981100000015753484482119531402_);fill:#9696E9;" points="
								322.413,207.902 315.207,207.957 315.2,207.685 322.406,207.63 							"/>
							<polygon style="clip-path:url(#SVGID_00000012447643445876981100000015753484482119531402_);fill:#9595E9;" points="
								322.42,208.174 315.214,208.23 315.207,207.957 322.413,207.902 							"/>
							<polygon style="clip-path:url(#SVGID_00000012447643445876981100000015753484482119531402_);fill:#9494E8;" points="
								322.427,208.447 315.221,208.502 315.214,208.23 322.42,208.174 							"/>
							<polygon style="clip-path:url(#SVGID_00000012447643445876981100000015753484482119531402_);fill:#9493E8;" points="
								322.434,208.719 315.228,208.774 315.221,208.502 322.427,208.447 							"/>
							<polygon style="clip-path:url(#SVGID_00000012447643445876981100000015753484482119531402_);fill:#9392E7;" points="
								322.441,208.992 315.235,209.047 315.228,208.774 322.434,208.719 							"/>
							<polygon style="clip-path:url(#SVGID_00000012447643445876981100000015753484482119531402_);fill:#9291E6;" points="
								322.448,209.264 315.242,209.319 315.235,209.047 322.441,208.992 							"/>
							<polygon style="clip-path:url(#SVGID_00000012447643445876981100000015753484482119531402_);fill:#9190E6;" points="
								322.456,209.536 315.249,209.592 315.242,209.319 322.448,209.264 							"/>
							<polygon style="clip-path:url(#SVGID_00000012447643445876981100000015753484482119531402_);fill:#908FE5;" points="
								322.463,209.809 315.257,209.864 315.249,209.592 322.456,209.536 							"/>
							<polygon style="clip-path:url(#SVGID_00000012447643445876981100000015753484482119531402_);fill:#8F8EE5;" points="
								322.47,210.081 315.264,210.136 315.257,209.864 322.463,209.809 							"/>
							<polygon style="clip-path:url(#SVGID_00000012447643445876981100000015753484482119531402_);fill:#8E8DE4;" points="
								322.477,210.354 315.271,210.409 315.264,210.136 322.47,210.081 							"/>
							<polygon style="clip-path:url(#SVGID_00000012447643445876981100000015753484482119531402_);fill:#8D8CE4;" points="
								322.484,210.626 315.278,210.681 315.271,210.409 322.477,210.354 							"/>
							<polygon style="clip-path:url(#SVGID_00000012447643445876981100000015753484482119531402_);fill:#8C8BE3;" points="
								322.491,210.898 315.285,210.954 315.278,210.681 322.484,210.626 							"/>
							<polygon style="clip-path:url(#SVGID_00000012447643445876981100000015753484482119531402_);fill:#8C8AE3;" points="
								322.498,211.171 315.292,211.226 315.285,210.954 322.491,210.898 							"/>
							<polygon style="clip-path:url(#SVGID_00000012447643445876981100000015753484482119531402_);fill:#8B89E2;" points="
								322.505,211.443 315.299,211.498 315.292,211.226 322.498,211.171 							"/>
							<polygon style="clip-path:url(#SVGID_00000012447643445876981100000015753484482119531402_);fill:#8A88E1;" points="
								322.512,211.715 315.306,211.771 315.299,211.498 322.505,211.443 							"/>
							<polygon style="clip-path:url(#SVGID_00000012447643445876981100000015753484482119531402_);fill:#8987E1;" points="
								322.519,211.988 315.313,212.043 315.306,211.771 322.512,211.715 							"/>
							<polygon style="clip-path:url(#SVGID_00000012447643445876981100000015753484482119531402_);fill:#8886E0;" points="
								322.526,212.26 315.32,212.316 315.313,212.043 322.519,211.988 							"/>
							<polygon style="clip-path:url(#SVGID_00000012447643445876981100000015753484482119531402_);fill:#8784E0;" points="
								322.534,212.533 315.327,212.588 315.32,212.316 322.526,212.26 							"/>
							<polygon style="clip-path:url(#SVGID_00000012447643445876981100000015753484482119531402_);fill:#8683DF;" points="
								322.541,212.805 315.335,212.86 315.327,212.588 322.534,212.533 							"/>
							<polygon style="clip-path:url(#SVGID_00000012447643445876981100000015753484482119531402_);fill:#8582DF;" points="
								322.548,213.077 315.342,213.133 315.335,212.86 322.541,212.805 							"/>
							<polygon style="clip-path:url(#SVGID_00000012447643445876981100000015753484482119531402_);fill:#8481DE;" points="
								322.555,213.35 315.349,213.405 315.342,213.133 322.548,213.077 							"/>
							<polygon style="clip-path:url(#SVGID_00000012447643445876981100000015753484482119531402_);fill:#8380DD;" points="
								322.562,213.622 315.356,213.678 315.349,213.405 322.555,213.35 							"/>
							<polygon style="clip-path:url(#SVGID_00000012447643445876981100000015753484482119531402_);fill:#837FDD;" points="
								315.551,213.949 315.363,213.95 315.356,213.678 322.562,213.622 322.566,213.766 							"/>
							<polygon style="clip-path:url(#SVGID_00000012447643445876981100000015753484482119531402_);fill:#827EDC;" points="
								315.363,213.95 315.551,213.949 315.363,213.953 							"/>
						</g>
					</g>
					<g>
						<path style="fill:#FFFFFF;" d="M332.554,214.284L332.554,214.284c-2.307,0.06-4.225-1.761-4.285-4.067l-0.679-26.057
							l8.353-0.218l0.679,26.057C336.681,212.306,334.861,214.224,332.554,214.284z"/>
						<path style="fill:#1133A2;" d="M332.56,214.51c-2.427,0.063-4.454-1.86-4.517-4.287l-0.685-26.282l8.803-0.229l0.685,26.282
							C336.91,212.42,334.987,214.446,332.56,214.51z M327.82,184.38l0.673,25.831c0.057,2.179,1.875,3.905,4.055,3.848
							c2.178-0.057,3.904-1.876,3.848-4.054l-0.673-25.831L327.82,184.38z"/>
					</g>
					<g>
						<path style="fill:#1133A2;" d="M335.789,185.037l-7.899,0.206c-0.552,0.014-1.01-0.421-1.025-0.973l0,0
							c-0.014-0.552,0.421-1.01,0.973-1.025l7.899-0.206c0.552-0.014,1.01,0.421,1.025,0.973l0,0
							C336.776,184.564,336.34,185.022,335.789,185.037z"/>
					</g>
					<g>
						<g>
							<defs>
								<path id="SVGID_00000116931610271144982370000000759601160579218306_" d="M328.581,200.133l0.255,9.79
									c0.053,2.03,1.708,3.634,3.697,3.582l0,0c1.989-0.052,3.558-1.74,3.505-3.77l-0.255-9.79L328.581,200.133z"/>
							</defs>
							<clipPath id="SVGID_00000053544869478365681190000009588998687685948299_">
								<use xlink:href="#SVGID_00000116931610271144982370000000759601160579218306_"  style="overflow:visible;"/>
							</clipPath>
							<polygon style="clip-path:url(#SVGID_00000053544869478365681190000009588998687685948299_);fill:#B0B3F9;" points="
								335.821,201.355 335.509,199.953 335.784,199.945 							"/>
							<polygon style="clip-path:url(#SVGID_00000053544869478365681190000009588998687685948299_);fill:#AFB2F9;" points="
								335.937,205.831 334.637,199.975 335.509,199.953 335.821,201.355 							"/>
							<polygon style="clip-path:url(#SVGID_00000053544869478365681190000009588998687685948299_);fill:#AEB1F8;" points="
								336.054,210.308 333.765,199.998 334.637,199.975 335.937,205.831 							"/>
							<polygon style="clip-path:url(#SVGID_00000053544869478365681190000009588998687685948299_);fill:#ADB0F8;" points="
								335.867,213.419 332.893,200.021 333.765,199.998 336.054,210.308 336.135,213.412 							"/>
							<polygon style="clip-path:url(#SVGID_00000053544869478365681190000009588998687685948299_);fill:#ADAFF7;" points="
								334.995,213.441 332.021,200.044 332.893,200.021 335.867,213.419 							"/>
							<polygon style="clip-path:url(#SVGID_00000053544869478365681190000009588998687685948299_);fill:#ACAEF7;" points="
								334.123,213.464 331.148,200.066 332.021,200.044 334.995,213.441 							"/>
							<polygon style="clip-path:url(#SVGID_00000053544869478365681190000009588998687685948299_);fill:#ABADF6;" points="
								333.251,213.487 330.276,200.089 331.148,200.066 334.123,213.464 							"/>
							<polygon style="clip-path:url(#SVGID_00000053544869478365681190000009588998687685948299_);fill:#AAACF6;" points="
								332.379,213.51 329.404,200.112 330.276,200.089 333.251,213.487 							"/>
							<polygon style="clip-path:url(#SVGID_00000053544869478365681190000009588998687685948299_);fill:#A9ABF5;" points="
								331.507,213.533 328.588,200.387 328.581,200.133 329.404,200.112 332.379,213.51 							"/>
							<polygon style="clip-path:url(#SVGID_00000053544869478365681190000009588998687685948299_);fill:#A8AAF4;" points="
								330.634,213.555 328.705,204.864 328.588,200.387 331.507,213.533 							"/>
							<polygon style="clip-path:url(#SVGID_00000053544869478365681190000009588998687685948299_);fill:#A7A9F4;" points="
								329.762,213.578 328.821,209.341 328.705,204.864 330.634,213.555 							"/>
							<polygon style="clip-path:url(#SVGID_00000053544869478365681190000009588998687685948299_);fill:#A6A8F3;" points="
								328.821,209.341 329.762,213.578 328.932,213.6 							"/>
						</g>
					</g>
					<g>
						<path style="fill:#FFFFFF;" d="M346.392,213.923L346.392,213.923c-2.307,0.06-4.225-1.761-4.285-4.067l-0.679-26.057
							l8.353-0.218l0.679,26.057C350.519,211.945,348.698,213.863,346.392,213.923z"/>
						<path style="fill:#1133A2;" d="M346.398,214.149c-2.427,0.063-4.454-1.86-4.517-4.287l-0.685-26.282l8.803-0.23l0.685,26.282
							C350.747,212.06,348.825,214.085,346.398,214.149z M341.658,184.019l0.673,25.831c0.057,2.179,1.875,3.905,4.055,3.848
							c2.178-0.057,3.904-1.876,3.848-4.054l-0.673-25.831L341.658,184.019z"/>
					</g>
					<g>
						<path style="fill:#1133A2;" d="M349.626,184.676l-7.899,0.206c-0.552,0.014-1.01-0.421-1.025-0.973l0,0
							c-0.014-0.552,0.421-1.01,0.973-1.025l7.899-0.206c0.551-0.014,1.01,0.421,1.025,0.973l0,0
							C350.613,184.203,350.178,184.662,349.626,184.676z"/>
					</g>
					<g>
						<path style="fill:#F69A2B;" d="M342.419,199.773l0.255,9.79c0.053,2.03,1.708,3.634,3.697,3.582l0,0
							c1.989-0.052,3.558-1.74,3.506-3.77l-0.255-9.79L342.419,199.773z"/>
					</g>
					<g>
						<path style="fill:#1133A2;" d="M357.077,219.12l-52.6,1.372c-1.051,0.027-1.925-0.802-1.952-1.853l0,0
							c-0.027-1.051,0.802-1.925,1.853-1.952l52.6-1.372c1.051-0.027,1.925,0.802,1.952,1.853l0,0
							C358.957,218.218,358.128,219.092,357.077,219.12z"/>
					</g>
					<g>
						<path style="fill:#1133A2;" d="M356.969,189.251l-53.941,1.407c-0.68,0.018-1.246-0.52-1.264-1.2l0,0
							c-0.018-0.68,0.519-1.246,1.2-1.264l53.941-1.406c0.68-0.018,1.246,0.52,1.264,1.2l0,0
							C358.187,188.668,357.65,189.234,356.969,189.251z"/>
					</g>
					<g>
						
							<rect x="306.968" y="188.073" transform="matrix(0.9997 -0.0261 0.0261 0.9997 -5.1669 8.0877)" style="fill:#1133A2;" width="1.658" height="28.519"/>
					</g>
					<g>
						
							<rect x="352.391" y="186.888" transform="matrix(0.9997 -0.0261 0.0261 0.9997 -5.1206 9.2707)" style="fill:#1133A2;" width="1.658" height="28.519"/>
					</g>
				</g>
			</g>
			<g>
				<path style="fill:#1D3078;" d="M208.668,309.167l0.507,3.647c0.114,0.821,0.774,1.45,1.598,1.534
					c1.615,0.164,4.308,0.166,6.448-1.178c0.65-0.408,0.97-1.186,0.794-1.934l-0.885-3.746c-0.222-0.941-1.152-1.534-2.099-1.339
					l-4.953,1.019C209.155,307.361,208.538,308.234,208.668,309.167z"/>
				<path style="fill:#091847;" d="M200.891,296.462l1.538,11.065c0.108,0.779,0.708,1.394,1.484,1.518
					c3.127,0.5,11.183,1.229,16.68-3.245c0.537-0.437,0.784-1.142,0.625-1.816l-2.624-11.1c-0.222-0.941-1.152-1.534-2.099-1.339
					l-14.195,2.921C201.378,294.655,200.761,295.529,200.891,296.462z"/>
				<path style="fill:#1D3078;" d="M195.02,283.081l2.185,15.715c0.107,0.767,0.692,1.381,1.455,1.513
					c3.837,0.666,15.451,1.992,23.057-4.567c0.49-0.423,0.681-1.099,0.532-1.729l-3.712-15.706
					c-0.222-0.941-1.152-1.534-2.099-1.339l-20.008,4.117C195.507,281.274,194.89,282.148,195.02,283.081z"/>
				<path style="fill:#1D3078;" d="M188.435,274.014c0,0-32.299-2.668-30.165,43.284s42.939,30.635,42.939,30.635l-32.643,34.715
					c0,0-32.267-18.896-29.63-63.843c2.637-44.948,30.76-62.148,43.692-62.023C195.559,256.907,188.435,274.014,188.435,274.014z"/>
				<path style="fill:#091847;" d="M201.209,347.933l-28.655,30.473c0.504-3.918,0.163-8.004-0.704-11.73
					c-1.809-7.783-7.895-13.563-11.169-20.693c-3.832-8.345-5.867-17.807-5.176-26.992c0.493-6.565,2.249-12.983,3.93-19.369
					c-1.02,4.901-1.488,10.73-1.166,17.676C160.404,363.25,201.209,347.933,201.209,347.933z"/>
				<path style="fill:#1D3078;" d="M182.97,225.366l27.564-4.958c1.143-0.206,2.241,0.541,2.469,1.68l10.722,53.455
					c0.231,1.151-0.512,2.273-1.662,2.509l-30.678,6.312c-1.207,0.248-2.374-0.575-2.543-1.796l-7.608-54.808
					C181.077,226.624,181.843,225.568,182.97,225.366z"/>
				<path style="fill:#091847;" d="M223.627,275.051c-9.81-0.379-19.607-0.939-26.842-8.437c-4.854-5.031-8.161-11.364-9.963-18.082
					c-1.921-7.162-2.262-14.836-5.17-21.72c-0.057-0.135-0.103-0.269-0.148-0.403c-0.227,0.396-0.337,0.863-0.27,1.349l7.608,54.808
					c0.169,1.221,1.336,2.045,2.543,1.796l30.678-6.312c1.15-0.237,1.893-1.358,1.662-2.509L223.627,275.051z"/>
				
					<ellipse transform="matrix(0.7556 -0.6551 0.6551 0.7556 -118.4959 181.7398)" style="fill:#5067B2;" cx="184.273" cy="249.648" rx="13.922" ry="13.922"/>
				
					<ellipse transform="matrix(0.7071 -0.7071 0.7071 0.7071 -122.5553 203.421)" style="fill:#1D3078;" cx="184.273" cy="249.648" rx="7.812" ry="7.812"/>
				<polygon style="fill:#091847;" points="185.286,224.949 177.438,189.653 201.795,185.301 207.029,221.038 				"/>
				<path style="fill:#5067B2;" d="M174.827,189.674l-0.763-2.814c-0.167-0.616,0.224-1.245,0.851-1.367l26.445-5.151
					c0.637-0.124,1.242,0.327,1.305,0.973l0.289,2.988c0.055,0.565-0.33,1.079-0.887,1.186l-25.971,4.976
					C175.53,190.574,174.978,190.229,174.827,189.674z"/>
				<path style="fill:#5067B2;" d="M179.983,211.947l-0.763-2.813c-0.167-0.616,0.224-1.245,0.851-1.367l26.445-5.151
					c0.637-0.124,1.242,0.327,1.305,0.973l0.289,2.988c0.055,0.565-0.33,1.079-0.887,1.186l-25.971,4.977
					C180.687,212.847,180.134,212.502,179.983,211.947z"/>
				<path style="fill:#091847;" d="M265.339,344.354c-1.086-9.859-19.909-17.708-42.974-17.708s-41.888,7.85-42.974,17.708h-0.003
					v0.043c-0.03,0.284-0.05,0.569-0.05,0.857c0,0.295,0.018,0.589,0.05,0.88v5.348c-0.032,0.292-0.05,0.585-0.05,0.881
					c0,0.287,0.02,0.572,0.05,0.856v0.509h0.078c1.619,9.639,20.199,17.242,42.899,17.242s41.281-7.604,42.899-17.242h0.128v-9.375
					H265.339z"/>
				<ellipse style="fill:#ADC3EF;" cx="222.364" cy="344.354" rx="36.724" ry="15.882"/>
				<path style="fill:#1D3078;" d="M159.927,403.34l10.452-36.985c0.561-1.985,2.373-3.356,4.435-3.356h12.863
					c2.063,0,3.874,1.371,4.435,3.356l10.452,36.985c0.831,2.941-1.379,5.863-4.435,5.863h-33.768
					C161.305,409.202,159.095,406.281,159.927,403.34z"/>
				<path style="fill:#091847;" d="M202.565,403.34l-10.452-36.985c-0.176-0.623-0.487-1.176-0.878-1.655
					c0.034,0.303,0.042,0.624,0.015,0.967c-0.345,4.317-0.572,8.534-0.067,12.849c0.446,3.814,1.104,7.613,0.801,11.466
					c-0.384,4.892-2.52,8.86-6.627,11.625c-7.119,4.793-16.66,5.035-25.113,5.042c0.746,1.488,2.276,2.553,4.119,2.553h33.768
					C201.186,409.202,203.396,406.281,202.565,403.34z"/>
				<path style="fill:#5067B2;" d="M187.084,376.81c0,3.224-2.614,5.838-5.838,5.838c-3.224,0-5.838-2.614-5.838-5.838
					c0-3.224,2.614-5.838,5.838-5.838C184.47,370.971,187.084,373.585,187.084,376.81z"/>
				<path style="fill:#1D3078;" d="M237.975,410.719H123.233c-1.043,0-1.889-0.846-1.889-1.889v-1.746
					c0-1.043,0.846-1.889,1.889-1.889h114.743c1.043,0,1.889,0.846,1.889,1.889v1.746
					C239.865,409.873,239.019,410.719,237.975,410.719z"/>
				<polyline style="opacity:0.24;fill:#FFFFFF;" points="247.575,332.812 211.07,359.469 198.195,356.31 243.954,331.51 				"/>
			</g>
		</g>
	</g>
</g>
</svg>
